<svg xmlns="http://www.w3.org/2000/svg" width="20" height="20" viewBox="0 0 72 72"><title>Asset 2</title><g id="Layer_2" data-name="Layer 2"><g id="Outline_icons" data-name="Outline icons"><path id="Outline-v2" d="M63,67.5V18a4.51,4.51,0,0,0-4.5-4.5h-9v-9A4.51,4.51,0,0,0,45,0H13.5A4.51,4.51,0,0,0,9,4.5v63H0V72H72V67.5Zm-4.5,0h-45V4.5H45V18H58.5ZM20.25,51.75h4.5v-4.5h-4.5Zm0-18h4.5v-4.5h-4.5Zm0-18h4.5v-4.5h-4.5Zm13.5,40.5h4.5v-9h-4.5Zm0-22.5h4.5v-4.5h-4.5Zm0-18h4.5v-4.5h-4.5Zm13.5,36h4.5v-4.5h-4.5Zm0-18h4.5v-4.5h-4.5Z"/></g></g></svg>