<svg xmlns="http://www.w3.org/2000/svg" width="20" height="20" viewBox="0 0 59.6 72"><title>Asset 1</title><g id="Layer_2" data-name="Layer 2"><g id="Outline_icons" data-name="Outline icons"><path id="Outline-v2" d="M29.8,0A29.74,29.74,0,0,0,8.71,8.7l-.11.11A29.92,29.92,0,0,0,8.7,50.9L29.8,72,50.9,50.9A29.92,29.92,0,0,0,51,8.81l-.1-.11A29.75,29.75,0,0,0,29.8,0Zm0,4.5A25.3,25.3,0,0,1,47.72,47.71L29.8,65.64,11.88,47.71a25.42,25.42,0,0,1,0-35.83A25.16,25.16,0,0,1,29.8,4.5Zm0,14.1A10.53,10.53,0,1,0,40.33,29.12,10.52,10.52,0,0,0,29.8,18.6Zm0,4.5a6,6,0,1,1-6,6A6,6,0,0,1,29.8,23.1Z"/></g></g></svg>